# xmcd
#
# Track frame offsets:
#	150
#	17008
#	31483
#	47900
#	62773
#	76567
#	90243
#	105959
#	121032
#	134679
#	151258
#	166625
#	180233
#	194655
#
# Disc length: 2820
#
# Revision: 2
# Processed by: cddbd v1.5.1PL0 Copyright (c) Steve Scherf et al.
# Submitted via: audiograbber 1.83.01
# Normalized: r1:DSETVAR1
#
DISCID=9c0b020e
DTITLE=Various Artist - Goldene Volksmuskparade 2003_5
DYEAR=2003
DGENRE=Volksmusik
TTITLE0=Kastelruther Spatzen - Das Edelweiß Tattoo
TTITLE1=Monika Martin and Karel Gott - Lass die Träume nie verloren geh'n
TTITLE2=Nockalm Quintett - Ich hab' dich gewarnt
TTITLE3=Mara Kayser - Das Leben ist ein Abenteuer
TTITLE4=Alpentrio Tirol - Ich hab' dich so lieb
TTITLE5=Marlena Martinelli - Wenn Männer wüssten
TTITLE6=Oliver Thomas - Wenn ich deine Liebe spür'
TTITLE7=Francine Jordi - Wenn Kinderaugen weinen
TTITLE8=Lei Drei Gmbr - Kaktus
TTITLE9=Marianne Cathomen - Tanz mit mir
TTITLE10=Rudy Giovanni - Ciao bella mio amore
TTITLE11=Stephanie - Mein schönster Traum
TTITLE12=Reiner Kirsten - Du zeigst mir den Himmel
TTITLE13=Marc Pircher - Weil du alles für mich bist
EXTD=
EXTT0=
EXTT1=
EXTT2=
EXTT3=
EXTT4=
EXTT5=
EXTT6=
EXTT7=
EXTT8=
EXTT9=
EXTT10=
EXTT11=
EXTT12=
EXTT13=
PLAYORDER=
